<svg width="71" height="44" viewBox="0 0 71 44" fill="none" xmlns="http://www.w3.org/2000/svg">
<g clip-path="url(#clip0_0_718)">
<rect y="18" width="71" height="26" rx="13" fill="#242D44"/>
<circle cx="13" cy="31" r="8" fill="#D03F2F"/>
<path d="M32.0483 10V9.004C32.8283 8.408 33.5103 7.868 34.0943 7.384C34.6783 6.896 35.1763 6.454 35.5883 6.058C36.0003 5.662 36.3343 5.302 36.5903 4.978C36.8463 4.65 37.0323 4.35 37.1483 4.078C37.2683 3.802 37.3283 3.542 37.3283 3.298C37.3283 2.994 37.2563 2.718 37.1123 2.47C36.9683 2.218 36.7723 2.018 36.5243 1.87C36.2803 1.722 36.0043 1.648 35.6963 1.648C35.4003 1.648 35.1263 1.724 34.8743 1.876C34.6263 2.024 34.4083 2.244 34.2203 2.536C34.0323 2.828 33.8763 3.186 33.7523 3.61L32.1203 2.848C32.2403 2.396 32.4123 1.99 32.6363 1.63C32.8643 1.266 33.1363 0.956 33.4523 0.7C33.7723 0.444 34.1303 0.247999 34.5263 0.111999C34.9223 -0.0240004 35.3503 -0.0920002 35.8103 -0.0920002C36.5103 -0.0920002 37.1323 0.0539997 37.6763 0.345999C38.2203 0.634 38.6463 1.028 38.9543 1.528C39.2663 2.028 39.4223 2.598 39.4223 3.238C39.4223 3.558 39.3783 3.872 39.2903 4.18C39.2023 4.488 39.0643 4.8 38.8763 5.116C38.6883 5.428 38.4443 5.75 38.1443 6.082C37.8443 6.41 37.4823 6.756 37.0583 7.12C36.6383 7.48 36.1483 7.864 35.5883 8.272H39.6023V10H32.0483Z" fill="white"/>
<path d="M12.262 10V2.008H10.786V0.0999994H14.206V10H12.262Z" fill="white"/>
<path d="M57.797 10.192C57.205 10.192 56.663 10.09 56.171 9.886C55.679 9.682 55.263 9.396 54.923 9.028C54.583 8.66 54.345 8.226 54.209 7.726L56.009 6.874C56.037 7.194 56.125 7.478 56.273 7.726C56.425 7.97 56.631 8.162 56.891 8.302C57.155 8.438 57.459 8.506 57.803 8.506C58.283 8.506 58.665 8.374 58.949 8.11C59.237 7.846 59.381 7.496 59.381 7.06C59.381 6.748 59.311 6.47 59.171 6.226C59.031 5.978 58.841 5.784 58.601 5.644C58.365 5.5 58.101 5.428 57.809 5.428C57.641 5.428 57.497 5.452 57.377 5.5V4.204H57.827C58.087 4.204 58.321 4.14 58.529 4.012C58.741 3.88 58.909 3.706 59.033 3.49C59.161 3.274 59.225 3.042 59.225 2.794C59.225 2.55 59.161 2.33 59.033 2.134C58.909 1.938 58.741 1.782 58.529 1.666C58.317 1.55 58.079 1.492 57.815 1.492C57.551 1.492 57.305 1.552 57.077 1.672C56.853 1.792 56.667 1.956 56.519 2.164C56.371 2.372 56.277 2.612 56.237 2.884L54.695 2.164C54.807 1.716 55.013 1.324 55.313 0.987999C55.613 0.647999 55.981 0.385999 56.417 0.201999C56.857 0.0139995 57.335 -0.0800004 57.851 -0.0800004C58.455 -0.0800004 58.993 0.0439997 59.465 0.292C59.941 0.539999 60.315 0.877999 60.587 1.306C60.859 1.73 60.995 2.214 60.995 2.758C60.995 3.038 60.953 3.3 60.869 3.544C60.789 3.788 60.673 4.01 60.521 4.21C60.369 4.41 60.185 4.582 59.969 4.726C60.249 4.874 60.491 5.062 60.695 5.29C60.899 5.518 61.055 5.78 61.163 6.076C61.271 6.368 61.325 6.694 61.325 7.054C61.325 7.654 61.177 8.192 60.881 8.668C60.585 9.14 60.171 9.512 59.639 9.784C59.111 10.056 58.497 10.192 57.797 10.192Z" fill="white"/>
</g>
<defs>
<clipPath id="clip0_0_718">
<rect width="71" height="44" fill="white"/>
</clipPath>
</defs>
</svg>
