<svg width="327" height="48" viewBox="0 0 327 48" fill="none" xmlns="http://www.w3.org/2000/svg">
<rect y="46.9565" width="327" height="1.04348" fill="#212121"/>
<path fill-rule="evenodd" clip-rule="evenodd" d="M299.333 15.875C295.766 15.875 292.875 18.7665 292.875 22.3333C292.875 25.9002 295.766 28.7917 299.333 28.7917C300.892 28.7917 302.321 28.2397 303.437 27.3207L308.058 31.9419L308.128 32.0025C308.373 32.184 308.72 32.1638 308.942 31.9419C309.186 31.6979 309.186 31.3021 308.942 31.0581L304.321 26.4368C305.24 25.3211 305.792 23.8917 305.792 22.3333C305.792 18.7665 302.9 15.875 299.333 15.875ZM299.333 17.125C302.21 17.125 304.542 19.4569 304.542 22.3333C304.542 25.2098 302.21 27.5417 299.333 27.5417C296.457 27.5417 294.125 25.2098 294.125 22.3333C294.125 19.4569 296.457 17.125 299.333 17.125Z" fill="#212121"/>
<path d="M23.0137 26.3408C23.0137 27.2204 22.6947 27.9062 22.0566 28.3984C21.4186 28.8906 20.5527 29.1367 19.459 29.1367C18.2741 29.1367 17.3626 28.984 16.7246 28.6787V27.5576C17.1348 27.7308 17.5814 27.8675 18.0645 27.9678C18.5475 28.068 19.026 28.1182 19.5 28.1182C20.2747 28.1182 20.8581 27.9723 21.25 27.6807C21.6419 27.3844 21.8379 26.9743 21.8379 26.4502C21.8379 26.1038 21.7673 25.8213 21.626 25.6025C21.4893 25.3792 21.2568 25.1742 20.9287 24.9873C20.6051 24.8005 20.1107 24.5885 19.4453 24.3516C18.5156 24.0189 17.8503 23.6247 17.4492 23.1689C17.0527 22.7132 16.8545 22.1185 16.8545 21.3848C16.8545 20.6146 17.1439 20.0016 17.7227 19.5459C18.3014 19.0902 19.0671 18.8623 20.0195 18.8623C21.013 18.8623 21.9268 19.0446 22.7607 19.4092L22.3984 20.4209C21.5736 20.0745 20.7715 19.9014 19.9922 19.9014C19.377 19.9014 18.8962 20.0335 18.5498 20.2979C18.2035 20.5622 18.0303 20.929 18.0303 21.3984C18.0303 21.7448 18.0941 22.0296 18.2217 22.2529C18.3493 22.4717 18.5635 22.6745 18.8643 22.8613C19.1696 23.0436 19.6344 23.2464 20.2588 23.4697C21.307 23.8434 22.027 24.2445 22.4189 24.6729C22.8154 25.1012 23.0137 25.6572 23.0137 26.3408ZM28.0518 29.1367C26.9443 29.1367 26.0693 28.7995 25.4268 28.125C24.7887 27.4505 24.4697 26.514 24.4697 25.3154C24.4697 24.1077 24.766 23.1484 25.3584 22.4375C25.9554 21.7266 26.7552 21.3711 27.7578 21.3711C28.6966 21.3711 29.4395 21.681 29.9863 22.3008C30.5332 22.916 30.8066 23.7295 30.8066 24.7412V25.459H25.6455C25.6683 26.3385 25.8893 27.0062 26.3086 27.4619C26.7324 27.9176 27.3271 28.1455 28.0928 28.1455C28.8994 28.1455 29.6969 27.9769 30.4854 27.6396V28.6514C30.0843 28.8245 29.7038 28.9476 29.3438 29.0205C28.9883 29.098 28.5576 29.1367 28.0518 29.1367ZM27.7441 22.3213C27.1426 22.3213 26.6618 22.5173 26.3018 22.9092C25.9463 23.3011 25.7367 23.8434 25.6729 24.5361H29.5898C29.5898 23.8206 29.4303 23.2738 29.1113 22.8955C28.7923 22.5127 28.3366 22.3213 27.7441 22.3213ZM37.3555 29L37.1299 27.9336H37.0752C36.7015 28.403 36.3278 28.722 35.9541 28.8906C35.585 29.0547 35.1224 29.1367 34.5664 29.1367C33.8236 29.1367 33.2402 28.9453 32.8164 28.5625C32.3971 28.1797 32.1875 27.6351 32.1875 26.9287C32.1875 25.4157 33.3975 24.6227 35.8174 24.5498L37.0889 24.5088V24.0439C37.0889 23.4561 36.9613 23.0231 36.7061 22.7451C36.4554 22.4626 36.0521 22.3213 35.4961 22.3213C34.8717 22.3213 34.1654 22.5127 33.377 22.8955L33.0283 22.0273C33.3975 21.8268 33.8008 21.6696 34.2383 21.5557C34.6803 21.4417 35.1224 21.3848 35.5645 21.3848C36.4577 21.3848 37.1185 21.583 37.5469 21.9795C37.9798 22.376 38.1963 23.0117 38.1963 23.8867V29H37.3555ZM34.792 28.2002C35.4984 28.2002 36.0521 28.0065 36.4531 27.6191C36.8587 27.2318 37.0615 26.6895 37.0615 25.9922V25.3154L35.9268 25.3633C35.0244 25.3952 34.3727 25.5365 33.9717 25.7871C33.5752 26.0332 33.377 26.4183 33.377 26.9424C33.377 27.3525 33.5 27.6647 33.7461 27.8789C33.9967 28.0931 34.3454 28.2002 34.792 28.2002ZM43.959 21.3711C44.2917 21.3711 44.5902 21.3984 44.8545 21.4531L44.6973 22.5059C44.3874 22.4375 44.1139 22.4033 43.877 22.4033C43.2708 22.4033 42.7513 22.6494 42.3184 23.1416C41.89 23.6338 41.6758 24.2467 41.6758 24.9805V29H40.541V21.5078H41.4775L41.6074 22.8955H41.6621C41.9401 22.4079 42.2751 22.0319 42.667 21.7676C43.0589 21.5033 43.4896 21.3711 43.959 21.3711ZM49.25 29.1367C48.1654 29.1367 47.3245 28.804 46.7275 28.1387C46.1351 27.4688 45.8389 26.5231 45.8389 25.3018C45.8389 24.0485 46.1396 23.0801 46.7412 22.3965C47.3473 21.7129 48.2087 21.3711 49.3252 21.3711C49.6852 21.3711 50.0452 21.4098 50.4053 21.4873C50.7653 21.5648 51.0479 21.6559 51.2529 21.7607L50.9043 22.7246C50.6536 22.6243 50.3802 22.5423 50.084 22.4785C49.7878 22.4102 49.5257 22.376 49.2979 22.376C47.7757 22.376 47.0146 23.3467 47.0146 25.2881C47.0146 26.2087 47.1992 26.915 47.5684 27.4072C47.9421 27.8994 48.4935 28.1455 49.2227 28.1455C49.847 28.1455 50.4873 28.0111 51.1436 27.7422V28.7471C50.6423 29.0068 50.0111 29.1367 49.25 29.1367ZM58.0547 29V24.1533C58.0547 23.5426 57.9157 23.0869 57.6377 22.7861C57.3597 22.4854 56.9245 22.335 56.332 22.335C55.5436 22.335 54.9671 22.5492 54.6025 22.9775C54.2425 23.4059 54.0625 24.1077 54.0625 25.083V29H52.9277V18.3633H54.0625V21.583C54.0625 21.9704 54.0443 22.2917 54.0078 22.5469H54.0762C54.2995 22.1868 54.6162 21.9043 55.0264 21.6992C55.4411 21.4896 55.9128 21.3848 56.4414 21.3848C57.3574 21.3848 58.0433 21.6035 58.499 22.041C58.9593 22.474 59.1895 23.1644 59.1895 24.1123V29H58.0547ZM61.3633 28.2754C61.3633 27.9701 61.4316 27.7399 61.5684 27.585C61.7096 27.4255 61.9102 27.3457 62.1699 27.3457C62.4342 27.3457 62.6393 27.4255 62.7852 27.585C62.9355 27.7399 63.0107 27.9701 63.0107 28.2754C63.0107 28.5716 62.9355 28.7995 62.7852 28.959C62.6348 29.1185 62.4297 29.1982 62.1699 29.1982C61.9375 29.1982 61.7438 29.1276 61.5889 28.9863C61.4385 28.8405 61.3633 28.6035 61.3633 28.2754ZM64.9863 28.2754C64.9863 27.9701 65.0547 27.7399 65.1914 27.585C65.3327 27.4255 65.5332 27.3457 65.793 27.3457C66.0573 27.3457 66.2624 27.4255 66.4082 27.585C66.5586 27.7399 66.6338 27.9701 66.6338 28.2754C66.6338 28.5716 66.5586 28.7995 66.4082 28.959C66.2578 29.1185 66.0527 29.1982 65.793 29.1982C65.5605 29.1982 65.3669 29.1276 65.2119 28.9863C65.0615 28.8405 64.9863 28.6035 64.9863 28.2754ZM68.6162 28.2754C68.6162 27.9701 68.6846 27.7399 68.8213 27.585C68.9626 27.4255 69.1631 27.3457 69.4229 27.3457C69.6872 27.3457 69.8923 27.4255 70.0381 27.585C70.1885 27.7399 70.2637 27.9701 70.2637 28.2754C70.2637 28.5716 70.1885 28.7995 70.0381 28.959C69.8877 29.1185 69.6826 29.1982 69.4229 29.1982C69.1904 29.1982 68.9967 29.1276 68.8418 28.9863C68.6914 28.8405 68.6162 28.6035 68.6162 28.2754Z" fill="#212121"/>
</svg>
