<svg width="71" height="42" viewBox="0 0 71 42" fill="none" xmlns="http://www.w3.org/2000/svg">
<g clip-path="url(#clip0_0_378)">
<rect y="16" width="71" height="26" rx="13" fill="#D2CDCD"/>
<circle cx="36" cy="29" r="8" fill="#FF8A38"/>
<path d="M35.938 1.46C35.674 1.46 35.44 1.524 35.236 1.652C35.036 1.776 34.866 1.922 34.726 2.09C34.59 2.258 34.486 2.412 34.414 2.552C34.342 2.688 34.302 2.768 34.294 2.792L32.758 2.09C32.766 2.038 32.804 1.934 32.872 1.778C32.94 1.618 33.048 1.434 33.196 1.226C33.344 1.018 33.538 0.816 33.778 0.62C34.022 0.424 34.322 0.262 34.678 0.133999C35.034 0.00199938 35.454 -0.0640006 35.938 -0.0640006C36.498 -0.0640006 36.962 0.0159996 37.33 0.176C37.702 0.336 37.994 0.546 38.206 0.806C38.422 1.062 38.576 1.34 38.668 1.64C38.76 1.94 38.806 2.228 38.806 2.504C38.806 2.848 38.736 3.182 38.596 3.506C38.46 3.826 38.282 4.13 38.062 4.418C37.842 4.702 37.606 4.964 37.354 5.204C37.102 5.44 36.86 5.648 36.628 5.828C36.4 6.004 36.206 6.144 36.046 6.248C35.886 6.352 35.79 6.416 35.758 6.44H38.74V8H33.058V6.578C33.118 6.534 33.254 6.436 33.466 6.284C33.678 6.132 33.932 5.942 34.228 5.714C34.528 5.486 34.838 5.236 35.158 4.964C35.482 4.688 35.782 4.404 36.058 4.112C36.338 3.82 36.566 3.534 36.742 3.254C36.918 2.974 37.006 2.716 37.006 2.48C37.006 2.108 36.912 1.846 36.724 1.694C36.54 1.538 36.278 1.46 35.938 1.46Z" fill="#36362C"/>
<path d="M12.4411 2.354L11.1811 3.014V1.31L13.3891 0.0799997H14.2351V8H12.4411V2.354Z" fill="#36362C"/>
<path d="M55.1735 1.664C55.2175 1.504 55.3035 1.324 55.4315 1.124C55.5595 0.924 55.7335 0.733999 55.9535 0.554C56.1775 0.374 56.4495 0.226 56.7695 0.11C57.0935 -0.00600052 57.4675 -0.0640006 57.8915 -0.0640006C58.3955 -0.0640006 58.8415 0.0299995 59.2295 0.218C59.6215 0.402 59.9295 0.66 60.1535 0.991999C60.3775 1.324 60.4895 1.712 60.4895 2.156C60.4895 2.424 60.4415 2.67 60.3455 2.894C60.2495 3.114 60.1255 3.298 59.9735 3.446C59.8215 3.594 59.6615 3.69 59.4935 3.734C59.6895 3.758 59.8855 3.848 60.0815 4.004C60.2815 4.16 60.4495 4.368 60.5855 4.628C60.7255 4.888 60.7955 5.194 60.7955 5.546C60.7955 6.05 60.6675 6.498 60.4115 6.89C60.1595 7.278 59.8135 7.584 59.3735 7.808C58.9335 8.032 58.4295 8.144 57.8615 8.144C57.2735 8.144 56.7735 8.04 56.3615 7.832C55.9535 7.624 55.6275 7.37 55.3835 7.07C55.1435 6.77 54.9835 6.48 54.9035 6.2L56.5475 5.384C56.5955 5.556 56.6755 5.736 56.7875 5.924C56.9035 6.112 57.0515 6.272 57.2315 6.404C57.4115 6.532 57.6195 6.596 57.8555 6.596C58.0995 6.596 58.3075 6.548 58.4795 6.452C58.6515 6.356 58.7835 6.226 58.8755 6.062C58.9715 5.894 59.0195 5.702 59.0195 5.486C59.0195 5.262 58.9655 5.076 58.8575 4.928C58.7535 4.78 58.6135 4.67 58.4375 4.598C58.2615 4.526 58.0675 4.49 57.8555 4.49H57.6995V3.206H57.9035C58.0875 3.206 58.2535 3.17 58.4015 3.098C58.5495 3.022 58.6655 2.916 58.7495 2.78C58.8375 2.64 58.8815 2.476 58.8815 2.288C58.8815 2.036 58.7955 1.822 58.6235 1.646C58.4515 1.466 58.2015 1.376 57.8735 1.376C57.6735 1.376 57.4975 1.412 57.3455 1.484C57.1975 1.552 57.0735 1.64 56.9735 1.748C56.8735 1.852 56.7935 1.96 56.7335 2.072C56.6775 2.18 56.6415 2.274 56.6255 2.354L55.1735 1.664Z" fill="#36362C"/>
</g>
<defs>
<clipPath id="clip0_0_378">
<rect width="71" height="42" fill="white"/>
</clipPath>
</defs>
</svg>
