<svg width="52" height="24" viewBox="0 0 52 24" fill="none" xmlns="http://www.w3.org/2000/svg">
<path d="M8.60775 19.56C9.21575 19.56 9.71708 19.4587 10.1117 19.256C10.5064 19.0427 10.7731 18.872 10.9117 18.744L13.1357 22.04C12.9651 22.1787 12.6718 22.36 12.2557 22.584C11.8397 22.7973 11.3171 22.984 10.6877 23.144C10.0691 23.304 9.35975 23.384 8.55975 23.384C7.05575 23.384 5.73308 23.1013 4.59175 22.536C3.45042 21.96 2.55975 21.1493 1.91975 20.104C1.29042 19.0587 0.975749 17.832 0.975749 16.424C0.975749 15.0053 1.29042 13.7787 1.91975 12.744C2.55975 11.7093 3.45042 10.9093 4.59175 10.344C5.73308 9.768 7.05575 9.48 8.55975 9.48C9.34908 9.48 10.0531 9.56533 10.6718 9.736C11.3011 9.896 11.8291 10.0827 12.2557 10.296C12.6824 10.4987 12.9811 10.6747 13.1517 10.824L10.8797 14.152C10.8051 14.0773 10.6664 13.9707 10.4637 13.832C10.2717 13.6933 10.0211 13.5707 9.71175 13.464C9.40242 13.3573 9.03442 13.304 8.60775 13.304C8.08508 13.304 7.59442 13.4373 7.13575 13.704C6.68775 13.9707 6.32508 14.3387 6.04775 14.808C5.77042 15.2773 5.63175 15.816 5.63175 16.424C5.63175 17.032 5.77042 17.576 6.04775 18.056C6.32508 18.5253 6.68775 18.8933 7.13575 19.16C7.59442 19.4267 8.08508 19.56 8.60775 19.56ZM24.7714 23V20.872C24.6754 21.0853 24.4301 21.3947 24.0354 21.8C23.6514 22.2053 23.1394 22.5733 22.4994 22.904C21.8594 23.224 21.1127 23.384 20.2594 23.384C18.9794 23.384 17.8594 23.0747 16.8994 22.456C15.9394 21.8267 15.1927 20.9893 14.6594 19.944C14.1261 18.888 13.8594 17.72 13.8594 16.44C13.8594 15.16 14.1261 13.9973 14.6594 12.952C15.1927 11.896 15.9394 11.0533 16.8994 10.424C17.8594 9.79467 18.9794 9.48 20.2594 9.48C21.0807 9.48 21.8007 9.61333 22.4194 9.88C23.0381 10.136 23.5394 10.4453 23.9234 10.808C24.3074 11.16 24.5741 11.4853 24.7234 11.784V9.864H29.5554V23H24.7714ZM18.6274 16.44C18.6274 17.0373 18.7661 17.576 19.0434 18.056C19.3207 18.5253 19.6887 18.8933 20.1474 19.16C20.6167 19.4267 21.1341 19.56 21.6994 19.56C22.2861 19.56 22.8034 19.4267 23.2514 19.16C23.6994 18.8933 24.0514 18.5253 24.3074 18.056C24.5741 17.576 24.7074 17.0373 24.7074 16.44C24.7074 15.8427 24.5741 15.3093 24.3074 14.84C24.0514 14.36 23.6994 13.9867 23.2514 13.72C22.8034 13.4427 22.2861 13.304 21.6994 13.304C21.1341 13.304 20.6167 13.4427 20.1474 13.72C19.6887 13.9867 19.3207 14.36 19.0434 14.84C18.7661 15.3093 18.6274 15.8427 18.6274 16.44ZM36.9726 23H32.0926V0.983999H36.9726V23ZM46.6953 19.56C47.3033 19.56 47.8046 19.4587 48.1993 19.256C48.5939 19.0427 48.8606 18.872 48.9993 18.744L51.2233 22.04C51.0526 22.1787 50.7593 22.36 50.3433 22.584C49.9273 22.7973 49.4046 22.984 48.7753 23.144C48.1566 23.304 47.4473 23.384 46.6473 23.384C45.1433 23.384 43.8206 23.1013 42.6793 22.536C41.5379 21.96 40.6473 21.1493 40.0073 20.104C39.3779 19.0587 39.0633 17.832 39.0633 16.424C39.0633 15.0053 39.3779 13.7787 40.0073 12.744C40.6473 11.7093 41.5379 10.9093 42.6793 10.344C43.8206 9.768 45.1433 9.48 46.6473 9.48C47.4366 9.48 48.1406 9.56533 48.7593 9.736C49.3886 9.896 49.9166 10.0827 50.3433 10.296C50.7699 10.4987 51.0686 10.6747 51.2393 10.824L48.9673 14.152C48.8926 14.0773 48.7539 13.9707 48.5513 13.832C48.3593 13.6933 48.1086 13.5707 47.7993 13.464C47.4899 13.3573 47.1219 13.304 46.6953 13.304C46.1726 13.304 45.6819 13.4373 45.2233 13.704C44.7753 13.9707 44.4126 14.3387 44.1353 14.808C43.8579 15.2773 43.7193 15.816 43.7193 16.424C43.7193 17.032 43.8579 17.576 44.1353 18.056C44.4126 18.5253 44.7753 18.8933 45.2233 19.16C45.6819 19.4267 46.1726 19.56 46.6953 19.56Z" fill="#36362C"/>
</svg>
